<svg width="336" height="336" viewBox="0 0 336 336" fill="none" xmlns="http://www.w3.org/2000/svg">
<circle cx="168" cy="168" r="168" fill="#195727"/>
<circle cx="168" cy="168" r="159.744" fill="white"/>
<path d="M168.413 5.77881C257.777 5.77894 330.222 78.2232 330.222 167.587C330.221 256.951 257.777 329.396 168.413 329.396C79.0488 329.396 6.6045 256.952 6.60437 167.587C6.60437 78.2231 79.0487 5.77881 168.413 5.77881ZM168.413 9.94287C81.3485 9.94287 10.7684 80.5229 10.7684 167.587C10.7685 254.652 81.3485 325.231 168.413 325.231C255.477 325.231 326.056 254.652 326.057 167.587C326.057 80.523 255.477 9.94305 168.413 9.94287Z" fill="#F5C41C"/>
<path d="M76.5406 181.638C70.2874 185.917 75.4545 195.497 68.8832 200.357C65.4101 202.925 59.4123 200.355 58.6733 204.611C58.0251 208.343 62.9274 212.268 62.9274 212.268C62.9274 212.268 60.9652 218.544 62.9274 221.627C68.8832 230.986 86.2633 220.255 93.5571 230.986C96.6881 235.593 99.5129 242.898 99.5129 242.898C99.5129 242.898 97.0883 248.096 97.8112 251.406C98.9186 256.477 106.547 254.938 108.021 259.914C108.776 262.463 108.021 266.721 108.021 266.721C108.021 266.721 106.481 269.731 106.319 271.826C105.655 280.465 120.681 275.118 129.292 276.08C141.669 277.462 147.475 278.177 159.921 278.632C171.917 279.071 190.551 276.08 190.551 276.08L207.568 263.318L216.076 221.627L214.374 213.97V192.699L212.673 181.638L185.446 154.412L170.131 141.65C170.131 141.65 163.085 145.657 160.772 145.904C148.8 147.181 151.028 155.652 140.352 161.219C134.662 164.186 131.384 166.223 125.038 167.174C120.766 167.815 118.157 166.087 113.977 167.174C109.948 168.222 108.647 171.232 104.618 172.279C100.437 173.366 97.5405 170.609 93.5571 172.279C89.6571 173.915 89.6207 177.927 85.8997 179.937C81.1857 182.483 80.9623 178.613 76.5406 181.638Z" fill="#F5C41C"/>
<path d="M216.076 221.627L207.568 263.318C207.568 263.318 213.005 272.232 214.374 278.632C215.764 285.131 209.446 295.254 216.076 294.798C219.203 294.583 221.181 291.395 221.181 291.395L256.915 257.362L269.678 251.406L266.275 242.047C266.275 242.047 262.355 236.327 261.17 230.135C259.482 221.324 261.17 203.76 261.17 203.76C261.17 203.76 256.02 190.39 256.915 181.638C258.156 169.502 269.201 166.229 272.23 154.412C273.234 150.496 273.932 144.202 273.932 144.202C273.932 144.202 275.713 137.511 275.634 133.141C275.507 126.205 270.529 116.125 270.529 116.125C270.529 116.125 265.123 107.613 267.125 102.512C269.146 97.3639 279.037 94.8543 279.037 94.8543C279.037 94.8543 276.897 88.418 273.932 85.4952C270.757 82.3656 267.417 84.3775 265.424 80.3903C263.938 77.4184 263.722 71.882 263.722 71.882C263.722 71.882 266.92 68.0402 267.125 65.0754C267.413 60.9221 265.838 57.3774 262.02 55.7163C257.251 53.6413 247.556 58.2688 247.556 58.2688C247.556 58.2688 240.85 58.9142 235.645 55.7163C229.036 51.6556 221.181 42.1031 221.181 42.1031L201.612 55.7163C201.612 55.7163 202.899 65.1269 206.717 69.3295C209.821 72.7462 214.798 71.1897 216.927 75.2853C218.766 78.823 218.332 81.7638 216.927 85.4952C214.749 91.2792 204.164 94.8543 204.164 94.8543L193.104 98.2576C193.104 98.2576 185.375 101.853 182.043 105.915C179.873 108.56 179.035 110.387 177.789 113.572C175.236 120.1 178.535 124.872 176.087 131.44C174.475 135.765 170.131 141.65 170.131 141.65L185.446 154.412L212.673 181.638L214.374 192.699V213.97L216.076 221.627Z" fill="#195727"/>
<path d="M207.568 263.318L190.551 276.08C190.551 276.08 171.917 279.071 159.921 278.632C147.475 278.177 141.669 277.462 129.292 276.08C120.681 275.118 105.655 280.465 106.319 271.826C106.481 269.731 108.021 266.721 108.021 266.721C108.021 266.721 108.776 262.463 108.021 259.914C106.547 254.938 98.9186 256.477 97.8112 251.406C97.0883 248.096 99.5129 242.898 99.5129 242.898C99.5129 242.898 96.6881 235.593 93.5571 230.986C86.2633 220.255 68.8832 230.986 62.9274 221.627C60.9652 218.544 62.9274 212.268 62.9274 212.268C62.9274 212.268 58.0251 208.343 58.6733 204.611C59.4123 200.355 65.4101 202.925 68.8832 200.357C75.4545 195.497 70.2874 185.917 76.5406 181.638C80.9623 178.613 81.1857 182.483 85.8997 179.937C89.6207 177.927 89.6571 173.915 93.5571 172.279C97.5405 170.609 100.437 173.366 104.618 172.279C108.647 171.232 109.948 168.222 113.977 167.174C118.157 166.087 120.766 167.815 125.038 167.174C131.384 166.223 134.662 164.186 140.352 161.219C151.028 155.652 148.8 147.181 160.772 145.904C163.085 145.657 170.131 141.65 170.131 141.65M207.568 263.318L216.076 221.627L214.374 213.97V192.699L212.673 181.638L185.446 154.412L170.131 141.65M207.568 263.318C207.568 263.318 213.005 272.232 214.374 278.632C215.764 285.131 209.446 295.254 216.076 294.798C219.203 294.583 221.181 291.395 221.181 291.395L256.915 257.362L269.678 251.406L266.275 242.047C266.275 242.047 262.355 236.327 261.17 230.135C259.482 221.324 261.17 203.76 261.17 203.76C261.17 203.76 256.02 190.39 256.915 181.638C258.156 169.502 269.201 166.229 272.23 154.412C273.234 150.496 273.932 144.202 273.932 144.202C273.932 144.202 275.713 137.511 275.634 133.141C275.507 126.205 270.529 116.125 270.529 116.125C270.529 116.125 265.123 107.613 267.125 102.512C269.146 97.3639 279.037 94.8543 279.037 94.8543C279.037 94.8543 276.897 88.418 273.932 85.4952C270.757 82.3656 267.417 84.3775 265.424 80.3903C263.938 77.4184 263.722 71.882 263.722 71.882C263.722 71.882 266.92 68.0402 267.125 65.0754C267.413 60.9221 265.838 57.3774 262.02 55.7163C257.251 53.6413 247.556 58.2688 247.556 58.2688C247.556 58.2688 240.85 58.9142 235.645 55.7163C229.036 51.6556 221.181 42.1031 221.181 42.1031L201.612 55.7163C201.612 55.7163 202.899 65.1269 206.717 69.3295C209.821 72.7462 214.798 71.1897 216.927 75.2853C218.766 78.823 218.332 81.7638 216.927 85.4952C214.749 91.2792 204.164 94.8543 204.164 94.8543L193.104 98.2576C193.104 98.2576 185.375 101.853 182.043 105.915C179.873 108.56 179.035 110.387 177.789 113.572C175.236 120.1 178.535 124.872 176.087 131.44C174.475 135.765 170.131 141.65 170.131 141.65" stroke="white" stroke-width="2.47666"/>
<path d="M122.452 233.597V222.79H126.959C127.768 222.79 128.445 222.904 128.99 223.133C129.539 223.361 129.951 223.682 130.225 224.093C130.503 224.505 130.642 224.982 130.642 225.523C130.642 225.935 130.556 226.303 130.383 226.626C130.211 226.946 129.974 227.212 129.671 227.423C129.368 227.634 129.018 227.782 128.621 227.866V227.972C129.057 227.993 129.46 228.111 129.829 228.325C130.202 228.54 130.501 228.839 130.726 229.222C130.952 229.602 131.064 230.053 131.064 230.573C131.064 231.154 130.916 231.673 130.621 232.13C130.325 232.584 129.898 232.943 129.339 233.207C128.779 233.467 128.1 233.597 127.302 233.597H122.452ZM125.064 231.492H126.679C127.245 231.492 127.662 231.384 127.93 231.17C128.2 230.955 128.336 230.656 128.336 230.273C128.336 229.995 128.271 229.755 128.141 229.555C128.01 229.351 127.826 229.194 127.587 229.085C127.347 228.973 127.061 228.916 126.726 228.916H125.064V231.492ZM125.064 227.233H126.51C126.795 227.233 127.048 227.186 127.27 227.091C127.492 226.996 127.664 226.858 127.787 226.679C127.914 226.5 127.977 226.283 127.977 226.03C127.977 225.668 127.849 225.383 127.592 225.175C127.335 224.967 126.989 224.864 126.552 224.864H125.064V227.233ZM142.52 228.193C142.52 229.383 142.292 230.39 141.834 231.217C141.377 232.044 140.758 232.672 139.977 233.101C139.199 233.53 138.327 233.745 137.36 233.745C136.389 233.745 135.514 233.528 134.737 233.096C133.959 232.663 133.342 232.035 132.885 231.212C132.431 230.385 132.204 229.379 132.204 228.193C132.204 227.004 132.431 225.996 132.885 225.17C133.342 224.343 133.959 223.715 134.737 223.286C135.514 222.857 136.389 222.642 137.36 222.642C138.327 222.642 139.199 222.857 139.977 223.286C140.758 223.715 141.377 224.343 141.834 225.17C142.292 225.996 142.52 227.004 142.52 228.193ZM139.85 228.193C139.85 227.49 139.75 226.895 139.549 226.41C139.352 225.924 139.068 225.557 138.695 225.307C138.325 225.057 137.88 224.932 137.36 224.932C136.842 224.932 136.397 225.057 136.024 225.307C135.652 225.557 135.365 225.924 135.164 226.41C134.967 226.895 134.869 227.49 134.869 228.193C134.869 228.897 134.967 229.492 135.164 229.977C135.365 230.463 135.652 230.83 136.024 231.08C136.397 231.33 136.842 231.455 137.36 231.455C137.88 231.455 138.325 231.33 138.695 231.08C139.068 230.83 139.352 230.463 139.549 229.977C139.75 229.492 139.85 228.897 139.85 228.193ZM144.045 233.597V222.79H146.658V227.36H146.8L150.373 222.79H153.449L149.618 227.613L153.518 233.597H150.394L147.702 229.349L146.658 230.668V233.597H144.045ZM154.479 233.597V222.79H157.091V227.36H157.234L160.806 222.79H163.883L160.052 227.613L163.952 233.597H160.828L158.136 229.349L157.091 230.668V233.597H154.479ZM174.475 228.193C174.475 229.383 174.246 230.39 173.789 231.217C173.332 232.044 172.713 232.672 171.932 233.101C171.154 233.53 170.282 233.745 169.314 233.745C168.343 233.745 167.469 233.528 166.692 233.096C165.914 232.663 165.297 232.035 164.839 231.212C164.386 230.385 164.159 229.379 164.159 228.193C164.159 227.004 164.386 225.996 164.839 225.17C165.297 224.343 165.914 223.715 166.692 223.286C167.469 222.857 168.343 222.642 169.314 222.642C170.282 222.642 171.154 222.857 171.932 223.286C172.713 223.715 173.332 224.343 173.789 225.17C174.246 225.996 174.475 227.004 174.475 228.193ZM171.805 228.193C171.805 227.49 171.705 226.895 171.504 226.41C171.307 225.924 171.022 225.557 170.649 225.307C170.28 225.057 169.835 224.932 169.314 224.932C168.797 224.932 168.352 225.057 167.979 225.307C167.606 225.557 167.32 225.924 167.119 226.41C166.922 226.895 166.823 227.49 166.823 228.193C166.823 228.897 166.922 229.492 167.119 229.977C167.32 230.463 167.606 230.83 167.979 231.08C168.352 231.33 168.797 231.455 169.314 231.455C169.835 231.455 170.28 231.33 170.649 231.08C171.022 230.83 171.307 230.463 171.504 229.977C171.705 229.492 171.805 228.897 171.805 228.193ZM181.842 226.03C181.807 225.643 181.65 225.342 181.372 225.128C181.098 224.909 180.705 224.8 180.195 224.8C179.858 224.8 179.576 224.844 179.351 224.932C179.126 225.02 178.957 225.142 178.844 225.296C178.732 225.448 178.674 225.622 178.67 225.819C178.663 225.981 178.695 226.123 178.765 226.246C178.839 226.369 178.945 226.478 179.082 226.573C179.223 226.665 179.391 226.746 179.588 226.816C179.785 226.886 180.007 226.948 180.253 227.001L181.182 227.212C181.717 227.328 182.188 227.483 182.596 227.676C183.008 227.87 183.353 228.1 183.631 228.368C183.912 228.635 184.125 228.943 184.269 229.291C184.413 229.639 184.487 230.03 184.491 230.463C184.487 231.145 184.315 231.731 183.974 232.22C183.632 232.709 183.142 233.083 182.501 233.344C181.865 233.604 181.096 233.734 180.195 233.734C179.291 233.734 178.503 233.599 177.831 233.328C177.159 233.057 176.637 232.645 176.264 232.093C175.891 231.541 175.699 230.842 175.689 229.998H178.19C178.211 230.346 178.304 230.637 178.47 230.869C178.635 231.101 178.862 231.277 179.151 231.397C179.442 231.516 179.78 231.576 180.164 231.576C180.515 231.576 180.815 231.528 181.061 231.433C181.311 231.339 181.502 231.207 181.636 231.038C181.77 230.869 181.838 230.675 181.842 230.457C181.838 230.253 181.775 230.079 181.652 229.935C181.529 229.787 181.339 229.66 181.082 229.555C180.829 229.446 180.505 229.346 180.111 229.254L178.982 228.99C178.046 228.776 177.309 228.429 176.771 227.951C176.232 227.469 175.965 226.818 175.968 225.998C175.965 225.33 176.144 224.744 176.507 224.241C176.869 223.738 177.37 223.346 178.011 223.064C178.651 222.783 179.381 222.642 180.201 222.642C181.038 222.642 181.764 222.785 182.38 223.069C182.999 223.351 183.479 223.747 183.821 224.257C184.162 224.767 184.336 225.358 184.343 226.03H181.842Z" fill="white"/>
<path d="M201.655 104.466H204.889L207.633 111.157H207.76L210.504 104.466H213.739V115.273H211.195V108.635H211.106L208.509 115.205H206.884L204.288 108.598H204.198V115.273H201.655V104.466ZM217.706 115.273H214.898L218.545 104.466H222.022L225.669 115.273H222.861L220.323 107.189H220.239L217.706 115.273ZM217.331 111.02H223.199V113.004H217.331V111.02ZM236.03 104.466V115.273H233.814L229.513 109.036H229.444V115.273H226.832V104.466H229.08L233.334 110.693H233.423V104.466H236.03ZM244.765 107.996C244.705 107.775 244.617 107.58 244.501 107.411C244.385 107.238 244.242 107.092 244.074 106.973C243.905 106.853 243.711 106.763 243.493 106.704C243.275 106.64 243.036 106.609 242.775 106.609C242.251 106.609 241.797 106.735 241.414 106.989C241.034 107.242 240.74 107.611 240.533 108.097C240.325 108.579 240.221 109.164 240.221 109.854C240.221 110.547 240.322 111.138 240.522 111.627C240.723 112.116 241.013 112.489 241.393 112.746C241.773 113.003 242.234 113.131 242.775 113.131C243.254 113.131 243.658 113.054 243.989 112.899C244.323 112.74 244.577 112.517 244.749 112.229C244.921 111.94 245.008 111.601 245.008 111.21L245.493 111.268H242.865V109.363H247.525V110.793C247.525 111.761 247.319 112.589 246.907 113.279C246.499 113.968 245.936 114.498 245.219 114.867C244.504 115.236 243.683 115.421 242.754 115.421C241.724 115.421 240.818 115.198 240.037 114.751C239.256 114.304 238.647 113.667 238.211 112.841C237.775 112.011 237.556 111.025 237.556 109.886C237.556 108.999 237.688 108.213 237.952 107.527C238.216 106.837 238.584 106.253 239.055 105.775C239.53 105.296 240.079 104.934 240.702 104.688C241.328 104.442 242.001 104.318 242.723 104.318C243.349 104.318 243.931 104.408 244.469 104.588C245.011 104.767 245.49 105.02 245.905 105.347C246.323 105.675 246.663 106.063 246.923 106.514C247.183 106.964 247.345 107.458 247.409 107.996H244.765ZM255.602 104.466H258.209V111.437C258.209 112.243 258.017 112.945 257.634 113.543C257.251 114.137 256.716 114.598 256.03 114.925C255.344 115.249 254.547 115.411 253.639 115.411C252.721 115.411 251.919 115.249 251.233 114.925C250.547 114.598 250.014 114.137 249.634 113.543C249.254 112.945 249.064 112.243 249.064 111.437V104.466H251.676V111.21C251.676 111.583 251.757 111.916 251.919 112.208C252.084 112.5 252.315 112.728 252.61 112.894C252.906 113.059 253.249 113.142 253.639 113.142C254.03 113.142 254.371 113.059 254.663 112.894C254.959 112.728 255.189 112.5 255.354 112.208C255.52 111.916 255.602 111.583 255.602 111.21V104.466Z" fill="white"/>
<mask id="path-8-outside-1_10_30" maskUnits="userSpaceOnUse" x="32.6732" y="127.125" width="271" height="86" fill="black">
<rect fill="white" x="32.6732" y="127.125" width="271" height="86"/>
<path d="M42.5446 205.125V151.305L40.5767 141.367L42.5446 135.464H77.9657C83.2789 135.464 87.8378 136.317 91.6423 138.022C95.4467 139.728 98.3657 142.483 100.399 146.287C102.433 150.026 103.449 154.978 103.449 161.144C103.449 170.393 100.957 177.051 95.9715 181.118C91.0519 185.119 84.0661 187.12 75.014 187.12H64.1909V189.284L65.1748 199.124L64.1909 205.125H42.5446ZM64.1909 168.72H69.8976C72.1934 168.72 74.1613 168.622 75.8011 168.425C77.5066 168.228 78.8185 167.638 79.7368 166.654C80.6551 165.605 81.1143 163.932 81.1143 161.636C81.1143 159.209 80.6223 157.471 79.6384 156.421C78.6545 155.372 77.277 154.749 75.5059 154.552C73.8005 154.29 71.7998 154.158 69.504 154.158H63.2069L64.1909 168.72ZM112.303 205.125V151.305L110.335 141.466L112.401 135.562H135.327L154.612 170H156.58L172.519 135.562H196.035L197.019 141.466L196.035 150.911V205.125H174.29L174.585 196.762V169.311H173.503L169.764 179.642L162.68 195.286H146.937L135.327 169.311H134.343V177.281L135.327 205.125H112.303ZM210.791 205.125V151.305L208.823 141.466L210.89 135.562H233.815L253.1 170H255.068L271.007 135.562H294.523L295.507 141.466L294.523 150.911V205.125H272.778L273.073 196.762V169.311H271.991L268.252 179.642L261.168 195.286H245.425L233.815 169.311H232.831V177.281L233.815 205.125H210.791Z"/>
</mask>
<path d="M42.5446 205.125V151.305L40.5767 141.367L42.5446 135.464H77.9657C83.2789 135.464 87.8378 136.317 91.6423 138.022C95.4467 139.728 98.3657 142.483 100.399 146.287C102.433 150.026 103.449 154.978 103.449 161.144C103.449 170.393 100.957 177.051 95.9715 181.118C91.0519 185.119 84.0661 187.12 75.014 187.12H64.1909V189.284L65.1748 199.124L64.1909 205.125H42.5446ZM64.1909 168.72H69.8976C72.1934 168.72 74.1613 168.622 75.8011 168.425C77.5066 168.228 78.8185 167.638 79.7368 166.654C80.6551 165.605 81.1143 163.932 81.1143 161.636C81.1143 159.209 80.6223 157.471 79.6384 156.421C78.6545 155.372 77.277 154.749 75.5059 154.552C73.8005 154.29 71.7998 154.158 69.504 154.158H63.2069L64.1909 168.72ZM112.303 205.125V151.305L110.335 141.466L112.401 135.562H135.327L154.612 170H156.58L172.519 135.562H196.035L197.019 141.466L196.035 150.911V205.125H174.29L174.585 196.762V169.311H173.503L169.764 179.642L162.68 195.286H146.937L135.327 169.311H134.343V177.281L135.327 205.125H112.303ZM210.791 205.125V151.305L208.823 141.466L210.89 135.562H233.815L253.1 170H255.068L271.007 135.562H294.523L295.507 141.466L294.523 150.911V205.125H272.778L273.073 196.762V169.311H271.991L268.252 179.642L261.168 195.286H245.425L233.815 169.311H232.831V177.281L233.815 205.125H210.791Z" fill="#195727"/>
<path d="M42.5446 205.125H35.1659V212.504H42.5446V205.125ZM42.5446 151.305H49.9233V150.581L49.7828 149.872L42.5446 151.305ZM40.5767 141.367L33.5767 139.034L32.9594 140.886L33.3386 142.801L40.5767 141.367ZM42.5446 135.464V128.085H37.2263L35.5445 133.131L42.5446 135.464ZM91.6423 138.022L94.6606 131.289L94.6606 131.289L91.6423 138.022ZM100.399 146.287L93.8916 149.765L93.9042 149.789L93.917 149.812L100.399 146.287ZM95.9715 181.118L100.627 186.842L100.636 186.835L95.9715 181.118ZM64.1909 187.12V179.741H56.8121V187.12H64.1909ZM64.1909 189.284H56.8121V189.652L56.8487 190.019L64.1909 189.284ZM65.1748 199.124L72.4563 200.317L72.6137 199.357L72.5169 198.389L65.1748 199.124ZM64.1909 205.125V212.504H70.4585L71.4724 206.319L64.1909 205.125ZM64.1909 168.72L56.8289 169.218L57.2939 176.099H64.1909V168.72ZM75.8011 168.425L74.9553 161.095L74.9387 161.097L74.922 161.099L75.8011 168.425ZM79.7368 166.654L85.1311 171.689L85.2119 171.602L85.2899 171.513L79.7368 166.654ZM79.6384 156.421L74.2553 161.468L74.2554 161.468L79.6384 156.421ZM75.5059 154.552L74.384 161.845L74.5371 161.868L74.6911 161.886L75.5059 154.552ZM63.2069 154.158V146.78H55.3128L55.845 154.656L63.2069 154.158ZM42.5446 205.125H49.9233V151.305H42.5446H35.1659V205.125H42.5446ZM42.5446 151.305L49.7828 149.872L47.8149 139.934L40.5767 141.367L33.3386 142.801L35.3064 152.738L42.5446 151.305ZM40.5767 141.367L47.5768 143.701L49.5447 137.797L42.5446 135.464L35.5445 133.131L33.5767 139.034L40.5767 141.367ZM42.5446 135.464V142.843H77.9657V135.464V128.085H42.5446V135.464ZM77.9657 135.464V142.843C82.5137 142.843 85.9913 143.575 88.6239 144.755L91.6423 138.022L94.6606 131.289C89.6842 129.058 84.0441 128.085 77.9657 128.085V135.464ZM91.6423 138.022L88.6239 144.755C90.8822 145.768 92.5999 147.348 93.8916 149.765L100.399 146.287L106.907 142.809C104.132 137.617 100.011 133.688 94.6606 131.289L91.6423 138.022ZM100.399 146.287L93.917 149.812C95.157 152.092 96.0706 155.694 96.0706 161.144H103.449H110.828C110.828 154.263 109.708 147.96 106.881 142.762L100.399 146.287ZM103.449 161.144H96.0706C96.0706 169.184 93.9223 173.267 91.3072 175.4L95.9715 181.118L100.636 186.835C107.991 180.835 110.828 171.602 110.828 161.144H103.449ZM95.9715 181.118L91.3157 175.393C88.1731 177.949 83.0795 179.741 75.014 179.741V187.12V194.498C85.0526 194.498 93.9307 192.289 100.627 186.842L95.9715 181.118ZM75.014 187.12V179.741H64.1909V187.12V194.498H75.014V187.12ZM64.1909 187.12H56.8121V189.284H64.1909H71.5696V187.12H64.1909ZM64.1909 189.284L56.8487 190.019L57.8327 199.858L65.1748 199.124L72.5169 198.389L71.533 188.55L64.1909 189.284ZM65.1748 199.124L57.8932 197.93L56.9093 203.932L64.1909 205.125L71.4724 206.319L72.4563 200.317L65.1748 199.124ZM64.1909 205.125V197.747H42.5446V205.125V212.504H64.1909V205.125ZM64.1909 168.72V176.099H69.8976V168.72V161.342H64.1909V168.72ZM69.8976 168.72V176.099C72.3832 176.099 74.661 175.994 76.6803 175.751L75.8011 168.425L74.922 161.099C73.6615 161.25 72.0036 161.342 69.8976 161.342V168.72ZM75.8011 168.425L76.6469 175.755C79.6015 175.414 82.7182 174.274 85.1311 171.689L79.7368 166.654L74.3425 161.62C74.5969 161.347 74.861 161.185 75.0362 161.106C75.1911 161.036 75.1954 161.067 74.9553 161.095L75.8011 168.425ZM79.7368 166.654L85.2899 171.513C87.9405 168.484 88.493 164.642 88.493 161.636H81.1143H73.7356C73.7356 161.968 73.7188 162.216 73.6984 162.393C73.6778 162.571 73.6561 162.653 73.6544 162.659C73.6495 162.677 73.7529 162.288 74.1837 161.795L79.7368 166.654ZM81.1143 161.636H88.493C88.493 158.535 87.9226 154.469 85.0215 151.375L79.6384 156.421L74.2554 161.468C73.7603 160.94 73.6404 160.504 73.6455 160.522C73.6471 160.528 73.6713 160.617 73.6943 160.811C73.717 161.003 73.7356 161.275 73.7356 161.636H81.1143ZM79.6384 156.421L85.0215 151.375C82.5688 148.759 79.4068 147.561 76.3208 147.218L75.5059 154.552L74.6911 161.886C74.9409 161.913 74.9559 161.948 74.8261 161.89C74.7603 161.86 74.6679 161.811 74.5616 161.735C74.4547 161.66 74.3503 161.569 74.2553 161.468L79.6384 156.421ZM75.5059 154.552L76.6279 147.259C74.4529 146.924 72.0609 146.78 69.504 146.78V154.158V161.537C71.5388 161.537 73.148 161.655 74.384 161.845L75.5059 154.552ZM69.504 154.158V146.78H63.2069V154.158V161.537H69.504V154.158ZM63.2069 154.158L55.845 154.656L56.8289 169.218L64.1909 168.72L71.5528 168.223L70.5689 153.661L63.2069 154.158ZM112.303 205.125H104.924V212.504H112.303V205.125ZM112.303 151.305H119.682V150.574L119.538 149.858L112.303 151.305ZM110.335 141.466L103.371 139.028L102.704 140.933L103.1 142.913L110.335 141.466ZM112.401 135.562V128.184H107.166L105.437 133.125L112.401 135.562ZM135.327 135.562L141.765 131.957L139.652 128.184H135.327V135.562ZM154.612 170L148.174 173.605L150.287 177.378H154.612V170ZM156.58 170V177.378H161.295L163.276 173.099L156.58 170ZM172.519 135.562V128.184H167.804L165.823 132.463L172.519 135.562ZM196.035 135.562L203.313 134.349L202.285 128.184H196.035V135.562ZM197.019 141.466L204.358 142.23L204.461 141.237L204.297 140.253L197.019 141.466ZM196.035 150.911L188.696 150.147L188.656 150.528V150.911H196.035ZM196.035 205.125V212.504H203.413V205.125H196.035ZM174.29 205.125L166.916 204.865L166.646 212.504H174.29V205.125ZM174.585 196.762L181.959 197.022L181.964 196.892V196.762H174.585ZM174.585 169.311H181.964V161.932H174.585V169.311ZM173.503 169.311V161.932H168.326L166.565 166.8L173.503 169.311ZM169.764 179.642L176.486 182.686L176.604 182.424L176.702 182.153L169.764 179.642ZM162.68 195.286V202.665H167.439L169.402 198.33L162.68 195.286ZM146.937 195.286L140.201 198.297L142.153 202.665H146.937V195.286ZM135.327 169.311L142.063 166.3L140.111 161.932H135.327V169.311ZM134.343 169.311V161.932H126.964V169.311H134.343ZM134.343 177.281H126.964V177.411L126.969 177.541L134.343 177.281ZM135.327 205.125V212.504H142.971L142.701 204.865L135.327 205.125ZM112.303 205.125H119.682V151.305H112.303H104.924V205.125H112.303ZM112.303 151.305L119.538 149.858L117.571 140.019L110.335 141.466L103.1 142.913L105.068 152.752L112.303 151.305ZM110.335 141.466L117.3 143.903L119.366 138L112.401 135.562L105.437 133.125L103.371 139.028L110.335 141.466ZM112.401 135.562V142.941H135.327V135.562V128.184H112.401V135.562ZM135.327 135.562L128.889 139.168L148.174 173.605L154.612 170L161.05 166.394L141.765 131.957L135.327 135.562ZM154.612 170V177.378H156.58V170V162.621H154.612V170ZM156.58 170L163.276 173.099L179.215 138.662L172.519 135.562L165.823 132.463L149.883 166.9L156.58 170ZM172.519 135.562V142.941H196.035V135.562V128.184H172.519V135.562ZM196.035 135.562L188.756 136.775L189.74 142.679L197.019 141.466L204.297 140.253L203.313 134.349L196.035 135.562ZM197.019 141.466L189.68 140.701L188.696 150.147L196.035 150.911L203.374 151.676L204.358 142.23L197.019 141.466ZM196.035 150.911H188.656V205.125H196.035H203.413V150.911H196.035ZM196.035 205.125V197.747H174.29V205.125V212.504H196.035V205.125ZM174.29 205.125L181.664 205.386L181.959 197.022L174.585 196.762L167.211 196.502L166.916 204.865L174.29 205.125ZM174.585 196.762H181.964V169.311H174.585H167.207V196.762H174.585ZM174.585 169.311V161.932H173.503V169.311V176.689H174.585V169.311ZM173.503 169.311L166.565 166.8L162.826 177.131L169.764 179.642L176.702 182.153L180.441 171.822L173.503 169.311ZM169.764 179.642L163.042 176.598L155.958 192.242L162.68 195.286L169.402 198.33L176.486 182.686L169.764 179.642ZM162.68 195.286V187.908H146.937V195.286V202.665H162.68V195.286ZM146.937 195.286L153.674 192.275L142.063 166.3L135.327 169.311L128.59 172.322L140.201 198.297L146.937 195.286ZM135.327 169.311V161.932H134.343V169.311V176.689H135.327V169.311ZM134.343 169.311H126.964V177.281H134.343H141.722V169.311H134.343ZM134.343 177.281L126.969 177.541L127.953 205.386L135.327 205.125L142.701 204.865L141.717 177.02L134.343 177.281ZM135.327 205.125V197.747H112.303V205.125V212.504H135.327V205.125ZM210.791 205.125H203.413V212.504H210.791V205.125ZM210.791 151.305H218.17V150.574L218.027 149.858L210.791 151.305ZM208.823 141.466L201.859 139.028L201.192 140.933L201.588 142.913L208.823 141.466ZM210.89 135.562V128.184H205.655L203.925 133.125L210.89 135.562ZM233.815 135.562L240.253 131.957L238.14 128.184H233.815V135.562ZM253.1 170L246.662 173.605L248.775 177.378H253.1V170ZM255.068 170V177.378H259.783L261.764 173.099L255.068 170ZM271.007 135.562V128.184H266.292L264.311 132.463L271.007 135.562ZM294.523 135.562L301.801 134.349L300.774 128.184H294.523V135.562ZM295.507 141.466L302.846 142.23L302.949 141.237L302.785 140.253L295.507 141.466ZM294.523 150.911L287.184 150.147L287.144 150.528V150.911H294.523ZM294.523 205.125V212.504H301.902V205.125H294.523ZM272.778 205.125L265.404 204.865L265.135 212.504H272.778V205.125ZM273.073 196.762L280.448 197.022L280.452 196.892V196.762H273.073ZM273.073 169.311H280.452V161.932H273.073V169.311ZM271.991 169.311V161.932H266.814L265.053 166.8L271.991 169.311ZM268.252 179.642L274.974 182.686L275.093 182.424L275.191 182.153L268.252 179.642ZM261.168 195.286V202.665H265.927L267.89 198.33L261.168 195.286ZM245.425 195.286L238.689 198.297L240.641 202.665H245.425V195.286ZM233.815 169.311L240.551 166.3L238.599 161.932H233.815V169.311ZM232.831 169.311V161.932H225.452V169.311H232.831ZM232.831 177.281H225.452V177.411L225.457 177.541L232.831 177.281ZM233.815 205.125V212.504H241.459L241.189 204.865L233.815 205.125ZM210.791 205.125H218.17V151.305H210.791H203.413V205.125H210.791ZM210.791 151.305L218.027 149.858L216.059 140.019L208.823 141.466L201.588 142.913L203.556 152.752L210.791 151.305ZM208.823 141.466L215.788 143.903L217.854 138L210.89 135.562L203.925 133.125L201.859 139.028L208.823 141.466ZM210.89 135.562V142.941H233.815V135.562V128.184H210.89V135.562ZM233.815 135.562L227.377 139.168L246.662 173.605L253.1 170L259.538 166.394L240.253 131.957L233.815 135.562ZM253.1 170V177.378H255.068V170V162.621H253.1V170ZM255.068 170L261.764 173.099L277.703 138.662L271.007 135.562L264.311 132.463L248.371 166.9L255.068 170ZM271.007 135.562V142.941H294.523V135.562V128.184H271.007V135.562ZM294.523 135.562L287.245 136.775L288.229 142.679L295.507 141.466L302.785 140.253L301.801 134.349L294.523 135.562ZM295.507 141.466L288.168 140.701L287.184 150.147L294.523 150.911L301.862 151.676L302.846 142.23L295.507 141.466ZM294.523 150.911H287.144V205.125H294.523H301.902V150.911H294.523ZM294.523 205.125V197.747H272.778V205.125V212.504H294.523V205.125ZM272.778 205.125L280.152 205.386L280.448 197.022L273.073 196.762L265.699 196.502L265.404 204.865L272.778 205.125ZM273.073 196.762H280.452V169.311H273.073H265.695V196.762H273.073ZM273.073 169.311V161.932H271.991V169.311V176.689H273.073V169.311ZM271.991 169.311L265.053 166.8L261.314 177.131L268.252 179.642L275.191 182.153L278.929 171.822L271.991 169.311ZM268.252 179.642L261.531 176.598L254.446 192.242L261.168 195.286L267.89 198.33L274.974 182.686L268.252 179.642ZM261.168 195.286V187.908H245.425V195.286V202.665H261.168V195.286ZM245.425 195.286L252.162 192.275L240.551 166.3L233.815 169.311L227.079 172.322L238.689 198.297L245.425 195.286ZM233.815 169.311V161.932H232.831V169.311V176.689H233.815V169.311ZM232.831 169.311H225.452V177.281H232.831H240.21V169.311H232.831ZM232.831 177.281L225.457 177.541L226.441 205.386L233.815 205.125L241.189 204.865L240.205 177.02L232.831 177.281ZM233.815 205.125V197.747H210.791V205.125V212.504H233.815V205.125Z" fill="white" mask="url(#path-8-outside-1_10_30)"/>
</svg>
