<svg width="769" height="245" viewBox="0 0 769 245" fill="none" xmlns="http://www.w3.org/2000/svg">
<g clip-path="url(#clip0_10_54)">
<path d="M122.5 245C190.155 245 245 190.155 245 122.5C245 54.8451 190.155 0 122.5 0C54.8451 0 0 54.8451 0 122.5C0 190.155 54.8451 245 122.5 245Z" fill="#195727"/>
<path d="M122.5 238.98C186.83 238.98 238.98 186.83 238.98 122.5C238.98 58.1698 186.83 6.01978 122.5 6.01978C58.1697 6.01978 6.01965 58.1698 6.01965 122.5C6.01965 186.83 58.1697 238.98 122.5 238.98Z" fill="white"/>
<path d="M122.801 4.21387C187.963 4.21387 240.786 57.0377 240.786 122.199C240.786 187.361 187.963 240.184 122.801 240.184C57.6395 240.184 4.81567 187.361 4.81567 122.199C4.81567 57.0377 57.6395 4.21387 122.801 4.21387ZM122.801 7.25012C59.3164 7.25012 7.85199 58.7146 7.85193 122.199C7.85193 185.684 59.3164 237.148 122.801 237.148C186.285 237.148 237.75 185.684 237.75 122.199C237.75 58.7146 186.285 7.25018 122.801 7.25012Z" fill="#F5C41C"/>
<path d="M55.8108 132.444C51.2512 135.564 55.0188 142.55 50.2273 146.093C47.6948 147.966 43.3214 146.092 42.7826 149.195C42.3099 151.917 45.8845 154.779 45.8845 154.779C45.8845 154.779 44.4537 159.355 45.8845 161.603C50.2273 168.427 62.8999 160.603 68.2189 168.427C70.5016 171.786 72.5615 177.113 72.5615 177.113C72.5615 177.113 70.7935 180.903 71.3208 183.317C72.1281 187.014 77.6902 185.892 78.7653 189.521C79.3161 191.379 78.7653 194.484 78.7653 194.484C78.7653 194.484 77.6421 196.678 77.5247 198.206C77.0401 204.506 87.9965 200.607 94.275 201.308C103.3 202.316 107.534 202.838 116.609 203.169C125.356 203.489 138.943 201.308 138.943 201.308L151.352 192.002L157.555 161.603L156.315 156.02V140.51L155.074 132.444L135.221 112.592L124.054 103.286C124.054 103.286 118.916 106.208 117.23 106.388C108.5 107.32 110.125 113.496 102.34 117.555C98.1914 119.719 95.801 121.204 91.1731 121.898C88.0585 122.365 86.1563 121.105 83.1079 121.898C80.1703 122.662 79.2216 124.857 76.284 125.621C73.2357 126.413 71.1234 124.402 68.2189 125.621C65.3746 126.813 65.3481 129.739 62.6351 131.204C59.1979 133.06 59.035 130.239 55.8108 132.444Z" fill="#F5C41C"/>
<path d="M157.556 161.603L151.352 192.002C151.352 192.002 155.316 198.503 156.315 203.169C157.328 207.908 152.721 215.289 157.556 214.957C159.836 214.8 161.277 212.475 161.277 212.475L187.334 187.66L196.64 183.317L194.159 176.493C194.159 176.493 191.3 172.322 190.436 167.807C189.206 161.382 190.436 148.575 190.436 148.575C190.436 148.575 186.682 138.826 187.334 132.444C188.239 123.596 196.293 121.209 198.501 112.592C199.233 109.737 199.742 105.147 199.742 105.147C199.742 105.147 201.041 100.268 200.983 97.0819C200.891 92.0242 197.261 84.6742 197.261 84.6742C197.261 84.6742 193.32 78.468 194.779 74.7478C196.252 70.9946 203.464 69.1646 203.464 69.1646C203.464 69.1646 201.904 64.4717 199.742 62.3401C197.427 60.0582 194.992 61.525 193.538 58.6179C192.454 56.4509 192.297 52.4139 192.297 52.4139C192.297 52.4139 194.629 49.6126 194.779 47.4508C194.989 44.4223 193.84 41.8377 191.057 40.6265C187.579 39.1134 180.51 42.4876 180.51 42.4876C180.51 42.4876 175.619 42.9583 171.825 40.6265C167.005 37.6655 161.277 30.7002 161.277 30.7002L147.008 40.6265C147.008 40.6265 147.948 47.4884 150.731 50.5528C152.994 53.0441 156.623 51.9091 158.176 54.8955C159.517 57.4751 159.2 59.6194 158.176 62.3401C156.588 66.5575 148.87 69.1646 148.87 69.1646L140.805 71.6459C140.805 71.6459 135.169 74.2681 132.739 77.2297C131.158 79.1584 130.547 80.49 129.638 82.813C127.776 87.5727 130.182 91.0527 128.397 95.8413C127.221 98.9956 124.054 103.286 124.054 103.286L135.221 112.592L155.074 132.444L156.315 140.51V156.02L157.556 161.603Z" fill="#195727"/>
<path d="M151.352 192.002L138.943 201.308C138.943 201.308 125.356 203.489 116.609 203.169C107.534 202.838 103.3 202.316 94.275 201.308C87.9965 200.607 77.0401 204.506 77.5247 198.206C77.6421 196.678 78.7653 194.484 78.7653 194.484C78.7653 194.484 79.3161 191.379 78.7653 189.521C77.6902 185.892 72.1281 187.014 71.3208 183.317C70.7935 180.903 72.5615 177.113 72.5615 177.113C72.5615 177.113 70.5016 171.786 68.2189 168.428C62.8999 160.603 50.2273 168.428 45.8845 161.603C44.4537 159.355 45.8845 154.779 45.8845 154.779C45.8845 154.779 42.3099 151.917 42.7826 149.195C43.3214 146.092 47.6948 147.966 50.2273 146.093C55.0188 142.55 51.2512 135.564 55.8108 132.444C59.035 130.239 59.1979 133.06 62.6351 131.204C65.3481 129.739 65.3746 126.813 68.2189 125.621C71.1234 124.402 73.2357 126.413 76.284 125.621C79.2216 124.857 80.1703 122.662 83.1079 121.898C86.1563 121.105 88.0585 122.365 91.1731 121.898C95.801 121.204 98.1914 119.719 102.34 117.555C110.125 113.496 108.5 107.32 117.23 106.388C118.916 106.208 124.054 103.286 124.054 103.286M151.352 192.002L157.555 161.603L156.315 156.02V140.51L155.074 132.444L135.221 112.592L124.054 103.286M151.352 192.002C151.352 192.002 155.316 198.503 156.315 203.169C157.328 207.908 152.721 215.289 157.555 214.957C159.836 214.8 161.277 212.475 161.277 212.475L187.334 187.66L196.64 183.317L194.159 176.493C194.159 176.493 191.3 172.322 190.436 167.807C189.206 161.382 190.436 148.575 190.436 148.575C190.436 148.575 186.682 138.826 187.334 132.444C188.239 123.596 196.293 121.209 198.501 112.592C199.233 109.737 199.742 105.147 199.742 105.147C199.742 105.147 201.041 100.268 200.983 97.0819C200.891 92.0242 197.26 84.6742 197.26 84.6742C197.26 84.6742 193.319 78.468 194.779 74.7478C196.252 70.9946 203.464 69.1646 203.464 69.1646C203.464 69.1646 201.904 64.4717 199.742 62.3401C197.427 60.0582 194.992 61.525 193.538 58.6179C192.454 56.4509 192.297 52.4139 192.297 52.4139C192.297 52.4139 194.629 49.6126 194.779 47.4508C194.989 44.4223 193.84 41.8377 191.057 40.6265C187.579 39.1134 180.51 42.4876 180.51 42.4876C180.51 42.4876 175.619 42.9583 171.824 40.6265C167.005 37.6655 161.277 30.7002 161.277 30.7002L147.008 40.6265C147.008 40.6265 147.947 47.4884 150.731 50.5528C152.994 53.0441 156.623 51.9091 158.175 54.8955C159.517 57.4751 159.2 59.6194 158.175 62.3401C156.587 66.5575 148.87 69.1646 148.87 69.1646L140.805 71.6459C140.805 71.6459 135.169 74.2681 132.739 77.2297C131.157 79.1584 130.546 80.49 129.637 82.813C127.776 87.5727 130.182 91.0527 128.397 95.8413C127.221 98.9956 124.054 103.286 124.054 103.286" stroke="white" stroke-width="1.8059"/>
<path d="M89.2883 170.958V163.078H92.5739C93.1644 163.078 93.658 163.162 94.0553 163.328C94.4556 163.495 94.756 163.728 94.9558 164.028C95.1587 164.328 95.2598 164.676 95.2598 165.071C95.2598 165.371 95.1972 165.639 95.0714 165.875C94.9456 166.109 94.7722 166.303 94.5519 166.456C94.3316 166.61 94.0764 166.718 93.7862 166.779V166.857C94.1041 166.872 94.3978 166.958 94.6675 167.114C94.939 167.271 95.1575 167.489 95.3212 167.768C95.4856 168.045 95.5674 168.374 95.5674 168.753C95.5674 169.176 95.4603 169.555 95.2448 169.889C95.0293 170.22 94.7175 170.481 94.3093 170.674C93.9018 170.863 93.4064 170.958 92.8243 170.958H89.2883ZM91.193 169.423H92.3704C92.7833 169.423 93.0873 169.345 93.2824 169.189C93.4798 169.032 93.5785 168.813 93.5785 168.534C93.5785 168.331 93.531 168.157 93.4359 168.011C93.3414 167.862 93.2065 167.748 93.032 167.669C92.8574 167.586 92.6485 167.545 92.4047 167.545H91.193V169.423ZM91.193 166.318H92.247C92.4547 166.318 92.6395 166.283 92.8014 166.214C92.9627 166.144 93.0885 166.044 93.1782 165.914C93.2703 165.783 93.3167 165.625 93.3167 165.441C93.3167 165.176 93.2234 164.969 93.0362 164.817C92.8484 164.666 92.5961 164.59 92.2777 164.59H91.193V166.318ZM103.922 167.018C103.922 167.885 103.755 168.62 103.421 169.223C103.088 169.826 102.636 170.283 102.067 170.597C101.5 170.91 100.864 171.066 100.158 171.066C99.4501 171.066 98.8126 170.908 98.2456 170.593C97.6791 170.277 97.2289 169.819 96.8954 169.219C96.5643 168.616 96.3987 167.883 96.3987 167.018C96.3987 166.151 96.5643 165.416 96.8954 164.813C97.2289 164.21 97.6791 163.753 98.2456 163.44C98.8126 163.127 99.4501 162.97 100.158 162.97C100.864 162.97 101.5 163.127 102.067 163.44C102.636 163.753 103.088 164.21 103.421 164.813C103.755 165.416 103.922 166.151 103.922 167.018ZM101.974 167.018C101.974 166.505 101.901 166.072 101.755 165.718C101.611 165.364 101.403 165.096 101.131 164.913C100.862 164.731 100.538 164.64 100.158 164.64C99.7812 164.64 99.4567 164.731 99.1846 164.913C98.9126 165.096 98.7037 165.364 98.5574 165.718C98.4135 166.072 98.3419 166.505 98.3419 167.018C98.3419 167.531 98.4135 167.965 98.5574 168.319C98.7037 168.673 98.9126 168.94 99.1846 169.123C99.4567 169.305 99.7812 169.396 100.158 169.396C100.538 169.396 100.862 169.305 101.131 169.123C101.403 168.94 101.611 168.673 101.755 168.319C101.901 167.965 101.974 167.531 101.974 167.018ZM105.033 170.958V163.078H106.938V166.41H107.042L109.647 163.078H111.89L109.097 166.595L111.94 170.958H109.662L107.7 167.861L106.938 168.823V170.958H105.033ZM112.642 170.958V163.078H114.546V166.41H114.65L117.255 163.078H119.498L116.705 166.595L119.548 170.958H117.27L115.308 167.861L114.546 168.823V170.958H112.642ZM127.222 167.018C127.222 167.885 127.055 168.62 126.722 169.223C126.388 169.826 125.937 170.283 125.367 170.597C124.8 170.91 124.164 171.066 123.458 171.066C122.75 171.066 122.113 170.908 121.546 170.593C120.979 170.277 120.529 169.819 120.196 169.219C119.865 168.616 119.699 167.883 119.699 167.018C119.699 166.151 119.865 165.416 120.196 164.813C120.529 164.21 120.979 163.753 121.546 163.44C122.113 163.127 122.75 162.97 123.458 162.97C124.164 162.97 124.8 163.127 125.367 163.44C125.937 163.753 126.388 164.21 126.722 164.813C127.055 165.416 127.222 166.151 127.222 167.018ZM125.274 167.018C125.274 166.505 125.202 166.072 125.055 165.718C124.911 165.364 124.704 165.096 124.432 164.913C124.163 164.731 123.838 164.64 123.458 164.64C123.081 164.64 122.757 164.731 122.485 164.913C122.213 165.096 122.004 165.364 121.858 165.718C121.714 166.072 121.642 166.505 121.642 167.018C121.642 167.531 121.714 167.965 121.858 168.319C122.004 168.673 122.213 168.94 122.485 169.123C122.757 169.305 123.081 169.396 123.458 169.396C123.838 169.396 124.163 169.305 124.432 169.123C124.704 168.94 124.911 168.673 125.055 168.319C125.202 167.965 125.274 167.531 125.274 167.018ZM132.593 165.441C132.567 165.158 132.453 164.939 132.251 164.783C132.051 164.624 131.765 164.544 131.393 164.544C131.147 164.544 130.941 164.576 130.777 164.64C130.613 164.704 130.49 164.793 130.407 164.906C130.326 165.016 130.283 165.143 130.28 165.287C130.276 165.405 130.298 165.509 130.35 165.598C130.404 165.688 130.481 165.768 130.581 165.837C130.683 165.904 130.806 165.963 130.95 166.014C131.094 166.065 131.256 166.11 131.435 166.149L132.112 166.303C132.502 166.387 132.846 166.5 133.143 166.641C133.444 166.782 133.695 166.95 133.898 167.145C134.103 167.34 134.258 167.564 134.363 167.818C134.468 168.072 134.522 168.357 134.525 168.673C134.522 169.17 134.397 169.597 134.147 169.954C133.899 170.311 133.541 170.584 133.074 170.773C132.61 170.963 132.05 171.058 131.393 171.058C130.733 171.058 130.159 170.96 129.669 170.762C129.179 170.565 128.798 170.264 128.526 169.862C128.254 169.459 128.115 168.95 128.107 168.334H129.931C129.946 168.588 130.014 168.8 130.134 168.969C130.255 169.139 130.421 169.267 130.631 169.353C130.844 169.441 131.09 169.485 131.369 169.485C131.626 169.485 131.844 169.45 132.024 169.381C132.205 169.311 132.346 169.215 132.443 169.092C132.541 168.969 132.591 168.828 132.593 168.669C132.591 168.52 132.544 168.393 132.455 168.288C132.365 168.18 132.227 168.088 132.039 168.011C131.855 167.932 131.619 167.858 131.331 167.791L130.507 167.599C129.825 167.443 129.288 167.19 128.895 166.841C128.503 166.49 128.308 166.015 128.311 165.417C128.308 164.93 128.439 164.503 128.703 164.136C128.967 163.769 129.333 163.483 129.799 163.278C130.267 163.073 130.799 162.97 131.396 162.97C132.007 162.97 132.537 163.074 132.986 163.282C133.437 163.487 133.787 163.776 134.036 164.148C134.285 164.52 134.412 164.951 134.417 165.441H132.593Z" fill="white"/>
<path d="M147.04 76.8006H149.398L151.399 81.6796H151.492L153.493 76.8006H155.851V84.6804H153.997V79.8399H153.931L152.038 84.6304H150.853L148.96 79.8135H148.894V84.6804H147.04V76.8006ZM158.744 84.6804H156.697L159.355 76.8006H161.891L164.55 84.6804H162.503L160.653 78.7859H160.591L158.744 84.6804ZM158.471 81.579H162.749V83.0262H158.471V81.579ZM172.106 76.8006V84.6804H170.489L167.353 80.1325H167.303V84.6804H165.399V76.8006H167.038L170.139 81.3406H170.205V76.8006H172.106ZM178.474 79.3746C178.431 79.2127 178.367 79.0706 178.282 78.9472C178.198 78.822 178.093 78.7155 177.971 78.6282C177.847 78.5409 177.706 78.4753 177.547 78.4319C177.388 78.3856 177.214 78.3627 177.024 78.3627C176.641 78.3627 176.311 78.4548 176.031 78.6396C175.754 78.8244 175.54 79.0935 175.389 79.4475C175.237 79.799 175.161 80.2264 175.161 80.729C175.161 81.2341 175.235 81.6651 175.381 82.0221C175.527 82.3784 175.739 82.6505 176.015 82.8377C176.293 83.0249 176.629 83.1183 177.024 83.1183C177.373 83.1183 177.668 83.0623 177.909 82.9491C178.152 82.8335 178.337 82.671 178.463 82.4603C178.589 82.2502 178.651 82.0028 178.651 81.7181L179.005 81.7602H177.089V80.3709H180.487V81.4141C180.487 82.119 180.337 82.7234 180.037 83.226C179.739 83.7286 179.329 84.1151 178.806 84.3842C178.285 84.6539 177.686 84.7881 177.009 84.7881C176.257 84.7881 175.596 84.6256 175.027 84.2999C174.458 83.9736 174.013 83.5095 173.695 82.907C173.378 82.3014 173.218 81.5832 173.218 80.7519C173.218 80.1054 173.314 79.5323 173.507 79.0321C173.699 78.5295 173.968 78.1033 174.311 77.7547C174.657 77.4056 175.058 77.1413 175.512 76.9619C175.968 76.7826 176.46 76.6929 176.985 76.6929C177.442 76.6929 177.866 76.7579 178.259 76.8891C178.654 77.0197 179.003 77.2045 179.306 77.4429C179.611 77.6813 179.858 77.9648 180.048 78.2935C180.238 78.6216 180.356 78.9821 180.402 79.3746H178.474ZM186.377 76.8006H188.277V81.883C188.277 82.4705 188.138 82.9822 187.858 83.4186C187.579 83.852 187.188 84.1879 186.688 84.4269C186.188 84.6629 185.607 84.7809 184.946 84.7809C184.276 84.7809 183.691 84.6629 183.191 84.4269C182.691 84.1879 182.302 83.852 182.025 83.4186C181.748 82.9822 181.609 82.4705 181.609 81.883V76.8006H183.514V81.7181C183.514 81.9896 183.573 82.2322 183.691 82.4453C183.811 82.6578 183.979 82.8245 184.195 82.9455C184.41 83.0659 184.661 83.1261 184.946 83.1261C185.23 83.1261 185.479 83.0659 185.692 82.9455C185.908 82.8245 186.075 82.6578 186.196 82.4453C186.316 82.2322 186.377 81.9896 186.377 81.7181V76.8006Z" fill="white"/>
<path d="M31.0827 149.253V110.02L29.6482 102.776L31.0827 98.4724H56.9037C60.7765 98.4724 64.0999 99.0943 66.8734 100.338C69.6462 101.581 71.7742 103.589 73.2567 106.362C74.7386 109.088 75.4802 112.698 75.4802 117.193C75.4802 123.934 73.6629 128.788 70.0288 131.753C66.4431 134.669 61.3507 136.128 54.7515 136.128H46.862V137.706L47.5793 144.878L46.862 149.253H31.0827ZM46.862 122.716H51.0221C52.6957 122.716 54.1303 122.644 55.3257 122.5C56.5689 122.356 57.525 121.926 58.1947 121.209C58.8636 120.444 59.1985 119.225 59.1985 117.551C59.1985 115.782 58.8401 114.515 58.1227 113.75C57.4053 112.985 56.4015 112.531 55.1106 112.387C53.8674 112.196 52.4088 112.1 50.7351 112.1H46.1448L46.862 122.716ZM81.9342 149.253V110.02L80.4994 102.847L82.0061 98.5444H98.7175L112.776 123.648H114.21L125.83 98.5444H142.972L143.689 102.847L142.972 109.733V149.253H127.12L127.336 143.157V123.146H126.547L123.821 130.677L118.657 142.081H107.181L98.7175 123.146H98.0008V128.956L98.7175 149.253H81.9342ZM153.729 149.253V110.02L152.294 102.847L153.8 98.5444H170.512L184.57 123.648H186.005L197.624 98.5444H214.766L215.483 102.847L214.766 109.733V149.253H198.915L199.13 143.157V123.146H198.341L195.616 130.677L190.452 142.081H178.976L170.512 123.146H169.795V128.956L170.512 149.253H153.729Z" fill="#195727"/>
<mask id="mask0_10_54" style="mask-type:luminance" maskUnits="userSpaceOnUse" x="24" y="92" width="197" height="63">
<path d="M221 92.7756H24V154.632H221V92.7756Z" fill="white"/>
<path d="M31.0827 149.253V110.02L29.6482 102.776L31.0827 98.4724H56.9037C60.7765 98.4724 64.0999 99.0943 66.8734 100.338C69.6462 101.581 71.7742 103.589 73.2567 106.362C74.7386 109.088 75.4802 112.698 75.4802 117.193C75.4802 123.934 73.6629 128.788 70.0288 131.753C66.4431 134.669 61.3507 136.128 54.7515 136.128H46.862V137.706L47.5793 144.878L46.862 149.253H31.0827ZM46.862 122.716H51.0221C52.6957 122.716 54.1303 122.644 55.3257 122.5C56.5689 122.356 57.525 121.926 58.1947 121.209C58.8636 120.444 59.1985 119.225 59.1985 117.551C59.1985 115.782 58.8401 114.515 58.1227 113.75C57.4053 112.985 56.4015 112.531 55.1106 112.387C53.8674 112.196 52.4088 112.1 50.7351 112.1H46.1448L46.862 122.716ZM81.9342 149.253V110.02L80.4994 102.847L82.0061 98.5444H98.7175L112.776 123.648H114.21L125.83 98.5444H142.972L143.689 102.847L142.972 109.733V149.253H127.12L127.336 143.157V123.146H126.547L123.821 130.677L118.657 142.081H107.181L98.7175 123.146H98.0008V128.956L98.7175 149.253H81.9342ZM153.729 149.253V110.02L152.294 102.847L153.8 98.5444H170.512L184.57 123.648H186.005L197.624 98.5444H214.766L215.483 102.847L214.766 109.733V149.253H198.915L199.13 143.157V123.146H198.341L195.616 130.677L190.452 142.081H178.976L170.512 123.146H169.795V128.956L170.512 149.253H153.729Z" fill="black"/>
</mask>
<g mask="url(#mask0_10_54)">
<path d="M31.0826 149.254H25.7037V154.632H31.0826V149.254ZM31.0826 110.02H36.4614V109.493L36.359 108.975L31.0826 110.02ZM29.6481 102.776L24.5453 101.075L24.0953 102.425L24.3717 103.821L29.6481 102.776ZM31.0826 98.4726V93.0938H27.2057L25.9797 96.7715L31.0826 98.4726ZM73.2567 106.363L68.5125 108.898L68.5219 108.915L68.5314 108.932L73.2567 106.363ZM70.0287 131.753L73.4227 135.925L73.4288 135.921L70.0287 131.753ZM46.862 136.128V130.749H41.4831V136.128H46.862ZM46.862 137.706H41.4831V137.974L41.5098 138.241L46.862 137.706ZM47.5792 144.879L52.8872 145.749L53.002 145.049L52.9314 144.343L47.5792 144.879ZM46.862 149.254V154.632H51.4308L52.1699 150.124L46.862 149.254ZM46.862 122.716L41.4954 123.078L41.8343 128.095H46.862V122.716ZM55.3256 122.501L54.7091 117.157L54.697 117.159L54.6849 117.16L55.3256 122.501ZM58.1946 121.21L62.1265 124.879L62.1857 124.816L62.2421 124.752L58.1946 121.21ZM55.1105 112.387L54.2922 117.703L54.4038 117.721L54.5161 117.733L55.1105 112.387ZM46.1448 112.101V106.722H40.3902L40.7782 112.463L46.1448 112.101ZM31.0826 149.254H36.4614V110.02H31.0826H25.7037V149.254H31.0826ZM31.0826 110.02L36.359 108.975L34.9245 101.731L29.6481 102.776L24.3717 103.821L25.8062 111.065L31.0826 110.02ZM29.6481 102.776L34.751 104.477L36.1854 100.174L31.0826 98.4726L25.9797 96.7715L24.5453 101.075L29.6481 102.776ZM31.0826 98.4726V103.851H56.9036V98.4726V93.0938H31.0826V98.4726ZM56.9036 98.4726V103.851C60.219 103.851 62.7538 104.385 64.6727 105.246L66.8733 100.338L69.0733 95.4295C65.4459 93.8031 61.3345 93.0938 56.9036 93.0938V98.4726ZM66.8733 100.338L64.6727 105.246C66.3193 105.983 67.5712 107.136 68.5125 108.898L73.2567 106.363L78.0001 103.827C75.9777 100.042 72.9736 97.1776 69.0733 95.4295L66.8733 100.338ZM73.2567 106.363L68.5314 108.932C69.435 110.594 70.1013 113.219 70.1013 117.193H75.4801H80.859C80.859 112.177 80.0427 107.582 77.982 103.792L73.2567 106.363ZM75.4801 117.193H70.1013C70.1013 123.053 68.5354 126.03 66.6286 127.585L70.0287 131.753L73.4288 135.921C78.7908 131.546 80.859 124.816 80.859 117.193H75.4801ZM70.0287 131.753L66.6353 127.58C64.3439 129.443 60.6312 130.749 54.7514 130.749V136.128V141.507C62.0694 141.507 68.5414 139.896 73.4227 135.925L70.0287 131.753ZM54.7514 136.128V130.749H46.862V136.128V141.507H54.7514V136.128ZM46.862 136.128H41.4831V137.706H46.862H52.2408V136.128H46.862ZM46.862 137.706L41.5098 138.241L42.2271 145.414L47.5792 144.879L52.9314 144.343L52.2141 137.171L46.862 137.706ZM47.5792 144.879L42.2713 144.009L41.554 148.384L46.862 149.254L52.1699 150.124L52.8872 145.749L47.5792 144.879ZM46.862 149.254V143.875H31.0826V149.254V154.632H46.862V149.254ZM46.862 122.716V128.095H51.022V122.716V117.337H46.862V122.716ZM51.022 122.716V128.095C52.834 128.095 54.4946 128.017 55.9664 127.841L55.3256 122.501L54.6849 117.16C53.7658 117.27 52.5572 117.337 51.022 117.337V122.716ZM55.3256 122.501L55.9422 127.844C58.0957 127.595 60.3676 126.764 62.1265 124.879L58.1946 121.21L54.262 117.539C54.4475 117.34 54.6398 117.223 54.7676 117.165C54.8805 117.114 54.8839 117.136 54.7091 117.157L55.3256 122.501ZM58.1946 121.21L62.2421 124.752C64.1745 122.543 64.5772 119.743 64.5772 117.551H59.1984H53.8196C53.8196 117.793 53.8074 117.974 53.7927 118.103C53.7779 118.232 53.7617 118.292 53.7604 118.297C53.757 118.31 53.8323 118.026 54.1463 117.667L58.1946 121.21ZM59.1984 117.551H64.5772C64.5772 115.29 64.1617 112.327 62.0465 110.071L58.1226 113.75L54.1988 117.429C53.8377 117.044 53.7503 116.726 53.7543 116.739C53.755 116.743 53.7732 116.808 53.7893 116.95C53.8061 117.09 53.8196 117.288 53.8196 117.551H59.1984ZM58.1226 113.75L62.0465 110.071C60.2587 108.164 57.9539 107.291 55.7042 107.041L55.1105 112.387L54.5161 117.733C54.6983 117.753 54.7091 117.779 54.6149 117.736C54.5665 117.715 54.4993 117.678 54.422 117.624C54.344 117.569 54.268 117.503 54.1988 117.429L58.1226 113.75ZM55.1105 112.387L55.9281 107.071C54.3426 106.827 52.599 106.722 50.7351 106.722V112.101V117.479C52.2183 117.479 53.3913 117.565 54.2922 117.703L55.1105 112.387ZM50.7351 112.101V106.722H46.1448V112.101V117.479H50.7351V112.101ZM46.1448 112.101L40.7782 112.463L41.4954 123.078L46.862 122.716L52.2286 122.353L51.5114 111.737L46.1448 112.101ZM81.9341 149.254H76.5552V154.632H81.9341V149.254ZM81.9341 110.02H87.3129V109.488L87.2087 108.965L81.9341 110.02ZM80.4993 102.848L75.423 101.071L74.9369 102.46L75.2253 103.903L80.4993 102.848ZM82.006 98.5445V93.1657H78.1897L76.9291 96.7675L82.006 98.5445ZM98.7174 98.5445L103.41 95.9163L101.87 93.1657H98.7174V98.5445ZM112.776 123.648L108.083 126.276L109.623 129.027H112.776V123.648ZM114.21 123.648V129.027H117.648L119.091 125.907L114.21 123.648ZM125.829 98.5445V93.1657H122.392L120.948 96.2847L125.829 98.5445ZM142.972 98.5445L148.277 97.6604L147.528 93.1657H142.972V98.5445ZM143.689 102.848L149.038 103.405L149.114 102.682L148.995 101.963L143.689 102.848ZM142.972 109.733L137.622 109.176L137.593 109.454V109.733H142.972ZM142.972 149.254V154.632H148.351V149.254H142.972ZM127.12 149.254L121.745 149.064L121.549 154.632H127.12V149.254ZM127.336 143.157L132.711 143.347L132.714 143.252V143.157H127.336ZM127.336 123.146H132.714V117.767H127.336V123.146ZM126.547 123.146V117.767H122.773L121.489 121.315L126.547 123.146ZM123.821 130.677L128.721 132.896L128.807 132.705L128.879 132.507L123.821 130.677ZM118.657 142.081V147.46H122.126L123.557 144.3L118.657 142.081ZM107.181 142.081L102.27 144.276L103.694 147.46H107.181V142.081ZM98.7174 123.146L103.628 120.951L102.205 117.767H98.7174V123.146ZM98.0007 123.146V117.767H92.6218V123.146H98.0007ZM98.0007 128.956H92.6218V129.051L92.6252 129.145L98.0007 128.956ZM98.7174 149.254V154.632H104.29L104.093 149.063L98.7174 149.254ZM81.9341 149.254H87.3129V110.02H81.9341H76.5552V149.254H81.9341ZM81.9341 110.02L87.2087 108.965L85.7739 101.793L80.4993 102.848L75.2253 103.903L76.6595 111.075L81.9341 110.02ZM80.4993 102.848L85.5762 104.625L87.083 100.322L82.006 98.5445L76.9291 96.7675L75.423 101.071L80.4993 102.848ZM82.006 98.5445V103.923H98.7174V98.5445V93.1657H82.006V98.5445ZM98.7174 98.5445L94.0244 101.173L108.083 126.276L112.776 123.648L117.469 121.02L103.41 95.9163L98.7174 98.5445ZM112.776 123.648V129.027H114.21V123.648V118.269H112.776V123.648ZM114.21 123.648L119.091 125.907L130.711 100.804L125.829 98.5445L120.948 96.2847L109.329 121.388L114.21 123.648ZM125.829 98.5445V103.923H142.972V98.5445V93.1657H125.829V98.5445ZM142.972 98.5445L137.666 99.4287L138.383 103.732L143.689 102.848L148.995 101.963L148.277 97.6604L142.972 98.5445ZM143.689 102.848L138.339 102.291L137.622 109.176L142.972 109.733L148.322 110.291L149.038 103.405L143.689 102.848ZM142.972 109.733H137.593V149.254H142.972H148.351V109.733H142.972ZM142.972 149.254V143.875H127.12V149.254V154.632H142.972V149.254ZM127.12 149.254L132.496 149.443L132.711 143.347L127.336 143.157L121.96 142.967L121.745 149.064L127.12 149.254ZM127.336 143.157H132.714V123.146H127.336H121.957V143.157H127.336ZM127.336 123.146V117.767H126.547V123.146V128.525H127.336V123.146ZM126.547 123.146L121.489 121.315L118.764 128.846L123.821 130.677L128.879 132.507L131.604 124.976L126.547 123.146ZM123.821 130.677L118.921 128.458L113.757 139.862L118.657 142.081L123.557 144.3L128.721 132.896L123.821 130.677ZM118.657 142.081V136.702H107.181V142.081V147.46H118.657V142.081ZM107.181 142.081L112.092 139.886L103.628 120.951L98.7174 123.146L93.8072 125.341L102.27 144.276L107.181 142.081ZM98.7174 123.146V117.767H98.0007V123.146V128.525H98.7174V123.146ZM98.0007 123.146H92.6218V128.956H98.0007H103.38V123.146H98.0007ZM98.0007 128.956L92.6252 129.145L93.3419 149.444L98.7174 149.254L104.093 149.063L103.376 128.766L98.0007 128.956ZM98.7174 149.254V143.875H81.9341V149.254V154.632H98.7174V149.254ZM153.729 149.254H148.351V154.632H153.729V149.254ZM153.729 110.02H159.108V109.488L159.003 108.965L153.729 110.02ZM152.294 102.848L147.217 101.071L146.731 102.46L147.019 103.903L152.294 102.848ZM153.8 98.5445V93.1657H149.984L148.723 96.7675L153.8 98.5445ZM170.512 98.5445L175.205 95.9163L173.665 93.1657H170.512V98.5445ZM184.57 123.648L179.877 126.276L181.417 129.027H184.57V123.648ZM186.005 123.648V129.027H189.442L190.886 125.907L186.005 123.648ZM197.624 98.5445V93.1657H194.186L192.743 96.2847L197.624 98.5445ZM214.766 98.5445L220.071 97.6604L219.322 93.1657H214.766V98.5445ZM215.483 102.848L220.833 103.405L220.909 102.682L220.789 101.963L215.483 102.848ZM214.766 109.733L209.416 109.176L209.387 109.454V109.733H214.766ZM214.766 149.254V154.632H220.145V149.254H214.766ZM198.915 149.254L193.54 149.064L193.343 154.632H198.915V149.254ZM199.13 143.157L204.506 143.347L204.509 143.252V143.157H199.13ZM199.13 123.146H204.509V117.767H199.13V123.146ZM198.341 123.146V117.767H194.568L193.283 121.315L198.341 123.146ZM195.616 130.677L200.515 132.896L200.602 132.705L200.673 132.507L195.616 130.677ZM190.452 142.081V147.46H193.92L195.352 144.3L190.452 142.081ZM178.976 142.081L174.065 144.276L175.488 147.46H178.976V142.081ZM170.512 123.146L175.423 120.951L174 117.767H170.512V123.146ZM169.795 123.146V117.767H164.416V123.146H169.795ZM169.795 128.956H164.416V129.051L164.419 129.145L169.795 128.956ZM170.512 149.254V154.632H176.085L175.888 149.063L170.512 149.254ZM153.729 149.254H159.108V110.02H153.729H148.35L148.351 149.254H153.729ZM153.729 110.02L159.003 108.965L157.569 101.793L152.294 102.848L147.019 103.903L148.454 111.075L153.729 110.02ZM152.294 102.848L157.371 104.625L158.877 100.322L153.8 98.5445L148.723 96.7675L147.217 101.071L152.294 102.848ZM153.8 98.5445V103.923H170.512V98.5445V93.1657H153.8V98.5445ZM170.512 98.5445L165.819 101.173L179.877 126.276L184.57 123.648L189.263 121.02L175.205 95.9163L170.512 98.5445ZM184.57 123.648V129.027H186.005V123.648V118.269H184.57V123.648ZM186.005 123.648L190.886 125.907L202.506 100.804L197.624 98.5445L192.743 96.2847L181.123 121.388L186.005 123.648ZM197.624 98.5445V103.923H214.766V98.5445V93.1657H197.624V98.5445ZM214.766 98.5445L209.46 99.4287L210.178 103.732L215.483 102.848L220.789 101.963L220.071 97.6604L214.766 98.5445ZM215.483 102.848L210.133 102.291L209.416 109.176L214.766 109.733L220.116 110.291L220.833 103.405L215.483 102.848ZM214.766 109.733H209.387V149.254H214.766H220.145V109.733H214.766ZM214.766 149.254V143.875H198.915V149.254V154.632H214.766V149.254ZM198.915 149.254L204.291 149.443L204.506 143.347L199.13 143.157L193.755 142.967L193.54 149.064L198.915 149.254ZM199.13 143.157H204.509V123.146H199.13H193.751V143.157H199.13ZM199.13 123.146V117.767H198.341V123.146V128.525H199.13V123.146ZM198.341 123.146L193.283 121.315L190.558 128.846L195.616 130.677L200.673 132.507L203.399 124.976L198.341 123.146ZM195.616 130.677L190.716 128.458L185.551 139.862L190.452 142.081L195.352 144.3L200.515 132.896L195.616 130.677ZM190.452 142.081V136.702H178.976V142.081V147.46H190.452V142.081ZM178.976 142.081L183.886 139.886L175.423 120.951L170.512 123.146L165.601 125.341L174.065 144.276L178.976 142.081ZM170.512 123.146V117.767H169.795V123.146V128.525H170.512V123.146ZM169.795 123.146H164.416V128.956H169.795H175.174V123.146H169.795ZM169.795 128.956L164.419 129.145L165.137 149.444L170.512 149.254L175.888 149.063L175.17 128.766L169.795 128.956ZM170.512 149.254V143.875H153.729V149.254V154.632H170.512V149.254Z" fill="white"/>
</g>
</g>
<path d="M273.5 117L276.4 107.55V102.7L279.6 101.2L286.1 81.65H295.95L304 104.05L307.85 111.15V117H301L298 108H283.45L280.8 117H273.5ZM286.25 101.8H295.75L291.45 88.25H290.4L286.25 101.8ZM318.073 117L309.073 89.55L307.573 84.6V81.6H314.973L322.023 109.4H323.023L329.973 81.6H337.273V84.6L335.773 89.55L326.823 117H318.073ZM343.477 117V89.65L342.477 84.65L343.527 81.65H351.077L361.877 102.65H362.877L371.977 81.65H379.927L380.427 84.65L379.927 89.45V117H372.877L373.027 112.75V94.8H372.477L370.777 98.95L364.977 112H358.977L350.977 94.8H350.477V98.85L350.977 117H343.477ZM402.434 117V89.65L401.434 84.6L402.434 81.6H414.434C416.867 81.6 419.05 81.9833 420.984 82.75C422.95 83.4833 424.5 84.75 425.634 86.55C426.8 88.3167 427.384 90.7667 427.384 93.9C427.384 97.0333 426.767 99.5167 425.534 101.35C424.3 103.15 422.584 104.433 420.384 105.2C418.217 105.967 415.734 106.35 412.934 106.35H409.434V108.95L409.934 113.95L409.434 117H402.434ZM409.434 100H414.334C416.534 100 418.034 99.4333 418.834 98.3C419.634 97.1333 420.034 95.6667 420.034 93.9C420.034 92.0333 419.6 90.6 418.734 89.6C417.9 88.6 416.367 88.1 414.134 88.1H408.934L409.434 100ZM428.363 117L431.263 107.55V102.7L434.463 101.2L440.963 81.65H450.813L458.863 104.05L462.713 111.15V117H455.863L452.863 108H438.313L435.663 117H428.363ZM441.113 101.8H450.613L446.313 88.25H445.263L441.113 101.8ZM480.665 117.5C477.232 117.5 474.532 116.933 472.565 115.8C470.632 114.667 469.248 113 468.415 110.8C467.615 108.567 467.215 105.85 467.215 102.65V89.65L467.265 84.6L467.215 81.6H474.315V103.15C474.315 105.483 474.782 107.383 475.715 108.85C476.648 110.283 478.298 111 480.665 111C483.032 111 484.698 110.333 485.665 109C486.665 107.633 487.165 105.683 487.165 103.15V81.6H494.115V102.65C494.115 105.783 493.715 108.467 492.915 110.7C492.148 112.9 490.782 114.583 488.815 115.75C486.882 116.917 484.165 117.5 480.665 117.5ZM502.1 117L501.1 114L502.1 109V81.6H509.1V102.15L508.6 110.5H509.6L520.55 110L524.1 109.5L527.5 113.8L525.05 117H502.1ZM546.896 117V89.65L545.896 84.65L546.946 81.65H554.496L565.296 102.65H566.296L575.396 81.65H583.346L583.846 84.65L583.346 89.45V117H576.296L576.446 112.75V94.8H575.896L574.196 98.95L568.396 112H562.396L554.396 94.8H553.896V98.85L554.396 117H546.896ZM588.842 117L591.742 107.55V102.7L594.942 101.2L601.442 81.65H611.292L619.342 104.05L623.192 111.15V117H616.342L613.342 108H598.792L596.142 117H588.842ZM601.592 101.8H611.092L606.792 88.25H605.742L601.592 101.8ZM638.493 117.5C635.927 117.5 633.743 117.167 631.943 116.5C630.143 115.8 628.793 115.067 627.893 114.3V107.4C629.06 108.067 630.61 108.767 632.543 109.5C634.51 110.233 636.677 110.6 639.043 110.6C640.577 110.6 641.71 110.3 642.443 109.7C643.21 109.1 643.593 108.283 643.593 107.25C643.593 106.317 643.293 105.55 642.693 104.95C642.093 104.35 641.193 103.8 639.993 103.3C638.793 102.8 637.26 102.217 635.393 101.55C632.727 100.583 630.66 99.3333 629.193 97.8C627.727 96.2667 626.993 94.2 626.993 91.6C626.993 89.7667 627.393 88.05 628.193 86.45C629.027 84.85 630.31 83.5667 632.043 82.6C633.81 81.6 636.06 81.1 638.793 81.1C639.86 81.1 640.91 81.15 641.943 81.25C643.01 81.3167 643.91 81.4167 644.643 81.55L650.293 85.7L647.793 90.8L638.643 87.55C637.443 87.55 636.443 87.85 635.643 88.45C634.877 89.0167 634.493 89.8333 634.493 90.9C634.493 92.2333 635.043 93.25 636.143 93.95C637.277 94.65 638.86 95.3333 640.893 96C644.76 97.2667 647.477 98.8 649.043 100.6C650.61 102.367 651.393 104.45 651.393 106.85C651.393 108.783 650.993 110.567 650.193 112.2C649.393 113.8 648.043 115.083 646.143 116.05C644.277 117.017 641.727 117.5 638.493 117.5ZM657.977 117V89.6L657.477 84.6L657.977 81.6H664.977V117H657.977ZM681.503 117V102L670.153 84.6V81.6H678.553L684.553 94.4H685.553L691.503 81.6H700.003V84.6L688.253 102.3L688.553 107.35V117H681.503ZM706.203 117L705.203 114L706.203 109V81.6H728.903L731.403 83.1L728.603 88.6L723.603 88.1H713.103V95.85H726.603V102.1H721.703L713.103 101.6V110.5H729.103L733.053 113.8L730.103 117H706.203ZM738.563 117V89.65L737.563 84.6L738.563 81.6H750.563C752.996 81.6 755.179 81.9833 757.113 82.75C759.079 83.4833 760.629 84.75 761.763 86.55C762.929 88.3167 763.513 90.7667 763.513 93.9C763.513 96.8667 762.946 99.2333 761.813 101C760.713 102.767 759.179 104.083 757.213 104.95L758.663 106.25L763.113 111.45L765.963 114V117H756.713L749.713 106.35H745.563V108.95L746.063 113.95L745.563 117H738.563ZM745.563 100H750.463C752.663 100 754.163 99.4333 754.963 98.3C755.763 97.1333 756.163 95.6667 756.163 93.9C756.163 92.0333 755.729 90.6 754.863 89.6C754.029 88.6 752.496 88.1 750.263 88.1H745.063L745.563 100Z" fill="#F5C41C"/>
<path d="M378 165V137.65L377 132.65L378.05 129.65H385.6L396.4 150.65H397.4L406.5 129.65H414.45L414.95 132.65L414.45 137.45V165H407.4L407.55 160.75V142.8H407L405.3 146.95L399.5 160H393.5L385.5 142.8H385V146.85L385.5 165H378ZM436.595 165.5C434.729 165.5 432.895 165.25 431.095 164.75C429.329 164.217 427.729 163.283 426.295 161.95C424.862 160.617 423.729 158.767 422.895 156.4C422.062 154.033 421.645 151 421.645 147.3C421.645 143.6 422.062 140.567 422.895 138.2C423.729 135.833 424.862 133.983 426.295 132.65C427.729 131.317 429.329 130.4 431.095 129.9C432.895 129.367 434.729 129.1 436.595 129.1C438.562 129.1 440.429 129.367 442.195 129.9C443.995 130.433 445.595 131.367 446.995 132.7C448.395 134.033 449.495 135.883 450.295 138.25C451.129 140.617 451.545 143.633 451.545 147.3C451.545 150.967 451.129 153.983 450.295 156.35C449.495 158.717 448.395 160.567 446.995 161.9C445.595 163.233 443.995 164.167 442.195 164.7C440.429 165.233 438.562 165.5 436.595 165.5ZM436.595 158.5C438.695 158.5 440.279 158.067 441.345 157.2C442.412 156.3 443.129 155.017 443.495 153.35C443.895 151.65 444.095 149.633 444.095 147.3C444.095 144.933 443.895 142.917 443.495 141.25C443.129 139.583 442.412 138.317 441.345 137.45C440.279 136.55 438.695 136.1 436.595 136.1C434.529 136.1 432.945 136.55 431.845 137.45C430.779 138.35 430.062 139.633 429.695 141.3C429.329 142.967 429.145 144.967 429.145 147.3C429.145 149.6 429.329 151.6 429.695 153.3C430.062 154.967 430.779 156.25 431.845 157.15C432.945 158.05 434.529 158.5 436.595 158.5ZM465.446 165L456.446 137.55L454.946 132.6V129.6H462.346L469.396 157.4H470.396L477.346 129.6H484.646V132.6L483.146 137.55L474.196 165H465.446ZM490.85 165L489.85 162L490.85 157V129.6H513.55L516.05 131.1L513.25 136.6L508.25 136.1H497.75V143.85H511.25V150.1H506.35L497.75 149.6V158.5H513.75L517.7 161.8L514.75 165H490.85ZM523.209 165V137.65L522.209 132.65L523.259 129.65H530.809L541.609 150.65H542.609L551.709 129.65H559.659L560.159 132.65L559.659 137.45V165H552.609L552.759 160.75V142.8H552.209L550.509 146.95L544.709 160H538.709L530.709 142.8H530.209V146.85L530.709 165H523.209ZM568.654 165L567.654 162L568.654 157V129.6H591.354L593.854 131.1L591.054 136.6L586.054 136.1H575.554V143.85H589.054V150.1H584.154L575.554 149.6V158.5H591.554L595.504 161.8L592.554 165H568.654ZM601.014 165V137.65L600.014 132.65L601.014 129.65H607.064L619.164 147.25L621.564 151.4H622.064V129.65H629.414V132.65L628.914 137.65V165H623.164L608.514 143.4H608.014V146.4L608.514 165H601.014ZM646.164 165V136L635.164 136.5V129.6H664.414V136.5L653.164 136V157L653.714 162L653.164 165H646.164Z" fill="#F5C41C"/>
<path d="M274.996 138C274.168 138 273.496 138.672 273.496 139.5C273.496 140.328 274.168 141 274.996 141V139.5V138ZM335.004 141H336.504V138H335.004V139.5V141ZM274.996 139.5V141H335.004V139.5V138H274.996V139.5Z" fill="#195727"/>
<path d="M707 141C706.172 141 705.5 140.328 705.5 139.5C705.5 138.672 706.172 138 707 138V139.5V141ZM767.008 138H768.508V141H767.008V139.5V138ZM707 139.5V138H767.008V139.5V141H707V139.5Z" fill="#195727"/>
<defs>
<clipPath id="clip0_10_54">
<rect width="245" height="245" fill="white"/>
</clipPath>
</defs>
</svg>
